# Blender v2.78 (sub 0) OBJ File: ''
# www.blender.org
mtllib fire.mtl
o Firestl.001
v 0.410049 -0.077000 0.419507
v 0.413991 -0.041129 0.131191
v 0.324224 0.107311 0.334190
v -0.271359 -0.077000 0.529504
v -0.178067 -0.041129 0.380089
v -0.216739 0.107311 0.421516
v -0.586539 -0.077000 -0.084555
v -0.508788 -0.041129 0.158241
v -0.400662 0.482482 -0.080057
v -0.099929 -0.077000 -0.574071
v -0.209810 -0.041128 -0.400539
v -0.080642 0.107311 -0.454602
v 0.516001 -0.077003 -0.262544
v 0.380840 -0.103684 -0.377635
v 0.408340 0.107308 -0.207284
v 0.300678 0.291619 -0.152024
v 0.119661 0.576159 -0.243579
v 0.147162 0.125137 -0.073228
v 0.273178 0.143180 -0.322375
v 0.245678 -0.070494 -0.492727
v 0.072875 -0.083641 -0.533399
v 0.092161 0.143181 -0.413930
v -0.061356 0.291622 -0.335133
v -0.204366 0.682240 -0.191269
v -0.033855 0.125138 -0.164783
v -0.167051 0.143182 -0.235339
v -0.402380 -0.005257 -0.388108
v -0.469493 -0.041129 -0.187690
v -0.374878 0.143182 -0.217756
v -0.347376 0.291621 -0.047405
v -0.171963 0.521519 0.090570
v -0.176865 0.125138 -0.020919
v -0.425259 0.143181 0.106576
v -0.503142 -0.005259 0.260556
v -0.318377 -0.041129 0.359679
v -0.332631 0.143181 0.287042
v -0.162119 0.291621 0.313527
v 0.094280 0.608856 0.270244
v -0.084236 0.125138 0.159547
v -0.039742 0.143182 0.435182
v 0.082635 -0.005257 0.556836
v 0.163481 -0.041128 0.326736
v 0.160517 0.143182 0.402855
v 0.238399 0.291622 0.248873
v 0.269539 0.642502 0.048425
v 0.116023 0.125138 0.127220
v 0.391917 0.143181 0.170077
v 0.545435 -0.005259 0.091281
v 0.530718 -0.041131 -0.085631
v 0.423056 0.143180 -0.030371
v 0.106785 0.674274 -0.052504
vn -0.8226 0.5558 0.1197
vn -0.5913 0.3809 -0.7109
vn 0.8355 0.3266 -0.4419
vn -0.9540 0.2605 -0.1482
vn 0.7178 0.2832 0.6361
vn -0.8002 0.4370 0.4107
vn -0.9457 0.3047 -0.1128
vn -0.0841 0.0754 -0.9936
vn 0.6879 0.2431 0.6839
vn 0.4296 0.3069 -0.8493
vn 0.4503 0.0667 -0.8904
vn 0.8921 0.4468 0.0678
vn 0.8389 0.0678 0.5401
vn -0.9196 0.3035 0.2496
vn -0.7207 0.4286 -0.5449
vn 0.5004 0.5035 -0.7044
vn 0.0904 0.3567 0.9298
vn 0.8109 0.3700 -0.4533
vn 0.1725 0.4475 -0.8775
vn 0.9454 0.2959 0.1365
vn -0.6944 0.0108 -0.7195
vn -0.8818 0.4167 -0.2207
vn 0.3790 0.2462 -0.8921
vn -0.4025 0.3085 0.8619
vn -0.3536 0.4011 0.8451
vn 0.9293 -0.1281 0.3465
vn -0.8497 0.3164 0.4218
vn 0.6620 0.3266 0.6746
vn 0.8257 0.5355 -0.1773
vn 0.9517 0.2693 0.1478
vn 0.7198 0.6851 0.1118
vn 0.9859 0.0667 0.1532
vn -0.6817 0.3164 -0.6597
vn 0.4238 0.5355 0.7305
vn 0.2923 -0.3610 0.8856
vn -0.3018 0.2811 0.9110
vn 0.1525 0.2907 0.9446
vn 0.1161 0.6851 0.7191
vn 0.1515 0.3098 0.9387
vn -0.1533 0.2738 -0.9495
vn 0.4690 0.2697 -0.8410
vn -0.5638 0.5355 0.6288
vn -0.7126 0.2089 0.6698
vn -0.8380 0.4386 0.3246
vn -0.5768 0.5558 0.5986
vn -0.7578 0.5238 0.3890
vn -0.6481 0.6851 0.3326
vn 0.8836 0.1166 -0.4535
vn 0.9457 0.2462 0.2121
vn 0.9237 0.2022 -0.3253
vn -0.6755 0.2326 -0.6997
vn -0.6821 0.2322 -0.6934
vn -0.0551 0.7572 -0.6509
vn -0.6743 0.3098 -0.6703
vn 0.1421 0.2959 0.9446
vn 0.0866 0.5355 -0.8401
vn 0.1133 0.4555 -0.8830
vn 0.2151 0.5152 -0.8296
vn -0.1154 0.3700 -0.9218
vn 0.3778 0.5470 -0.7470
vn -0.4312 0.2957 0.8525
vn -0.8026 0.3567 0.4782
vn 0.6254 0.5355 -0.5676
vn 0.6497 0.4245 -0.6307
vn 0.6453 0.4237 -0.6356
vn -0.8532 0.3437 -0.3924
vn -0.7610 0.5219 -0.3853
vn 0.0737 0.6561 -0.7511
vn 0.6979 0.3057 0.6477
vn -0.5190 0.4405 0.7325
vn -0.9163 0.3910 -0.0865
vn -0.1724 0.5355 0.8268
vn -0.0189 -0.2733 0.9617
vn -0.5688 0.1875 0.8009
vn 0.7330 0.5355 0.4194
vn 0.9218 0.0289 0.3865
vn 0.3260 -0.1576 0.9321
usemtl Material.002
s off
f 30//1 33//1 31//1
f 37//2 38//2 39//2
f 45//3 50//3 16//3
f 46//4 45//4 18//4
f 38//5 43//5 44//5
f 32//6 39//6 51//6
f 24//7 29//7 30//7
f 24//8 26//8 29//8
f 25//9 24//9 32//9
f 17//10 19//10 22//10
f 18//11 25//11 51//11
usemtl Material.003
f 1//12 2//12 3//12
f 4//13 5//13 6//13
f 7//14 8//14 9//14
f 10//15 11//15 12//15
f 13//16 14//16 15//16
f 16//17 17//17 18//17
f 16//18 19//18 17//18
f 20//19 21//19 22//19
f 23//20 24//20 25//20
f 23//21 26//21 24//21
f 27//22 28//22 29//22
f 30//23 31//23 32//23
f 34//24 35//24 36//24
f 37//25 40//25 38//25
f 41//26 42//26 43//26
f 44//27 45//27 46//27
f 44//28 47//28 45//28
f 48//29 49//29 50//29
f 50//29 15//29 16//29
f 50//29 49//29 15//29
f 49//29 13//29 15//29
f 45//30 47//30 50//30
f 47//31 48//31 50//31
f 46//32 18//32 51//32
f 45//33 16//33 18//33
f 43//34 3//34 44//34
f 43//35 42//35 3//35
f 42//36 1//36 3//36
f 38//37 40//37 43//37
f 40//38 41//38 43//38
f 39//39 46//39 51//39
f 39//40 38//40 46//40
f 38//41 44//41 46//41
f 36//42 6//42 37//42
f 36//43 35//43 6//43
f 35//44 4//44 6//44
f 31//45 36//45 37//45
f 31//46 33//46 36//46
f 33//47 34//47 36//47
f 32//48 31//48 39//48
f 31//49 37//49 39//49
f 29//50 9//50 30//50
f 29//51 28//51 9//51
f 28//52 7//52 9//52
f 26//53 27//53 29//53
f 25//54 32//54 51//54
f 24//55 30//55 32//55
f 22//56 12//56 23//56
f 22//57 21//57 12//57
f 21//58 10//58 12//58
f 17//59 22//59 23//59
f 19//60 20//60 22//60
f 18//61 17//61 25//61
f 17//62 23//62 25//62
f 15//63 19//63 16//63
f 15//64 14//64 19//64
f 14//65 20//65 19//65
f 12//66 26//66 23//66
f 12//67 11//67 26//67
f 11//68 27//68 26//68
f 9//69 33//69 30//69
f 9//70 8//70 33//70
f 8//71 34//71 33//71
f 6//72 40//72 37//72
f 6//73 5//73 40//73
f 5//74 41//74 40//74
f 3//75 47//75 44//75
f 3//76 2//76 47//76
f 2//77 48//77 47//77
